# xmcd CD database file
#
# Track frame offsets:
#	150
#	19244
#	38366
#	59098
#	78152
#	98366
#	112598
#	128833
#	143969
#	160590
#	177273
#	195689
#	215475
#	229498
#
# Disc length: 3273 seconds
#
# Revision: 0
# Processed by: cddbd v1.5.1PL2 Copyright (c) Steve Scherf et al.
# Submitted via: CDex 1.50
#
DISCID=b00cc70e
DTITLE=Ernie Cruz Sr. - Classic Ernie Cruz Sr. "only better"
DYEAR=2006
DGENRE=Country
TTITLE0=Welcome to My World
TTITLE1=Downtown Modesto
TTITLE2=Walk a While With Me
TTITLE3=Life's Railway to Heaven
TTITLE4=I Don't Need a Thing At All
TTITLE5=Save the Last Dance for Me
TTITLE6=Working Man Blues
TTITLE7=It's Not Love
TTITLE8=Sloop John B.
TTITLE9=How Great Thou Art
TTITLE10=All My Friends Are Gonna Be Strangers
TTITLE11=It Makes Me Wonder
TTITLE12=Johnny B. Goode
TTITLE13=I Love You Hilo
EXTD=YEAR: 2006
EXTT0=
EXTT1=
EXTT2=
EXTT3=
EXTT4=
EXTT5=
EXTT6=
EXTT7=
EXTT8=
EXTT9=
EXTT10=
EXTT11=
EXTT12=
EXTT13=
PLAYORDER=
